<svg width="235" height="173" viewBox="0 0 235 173" fill="none" xmlns="http://www.w3.org/2000/svg">
<path d="M76.8409 60.2033C76.5471 60.2033 76.295 60.1005 76.0869 59.8997C75.8837 59.699 75.7834 59.4469 75.7834 59.1458V45.6822H70.9952C70.7137 45.6822 70.4787 45.5917 70.2902 45.4081C70.0993 45.2196 70.0063 44.9846 70.0063 44.7031C70.0063 44.4167 70.0993 44.1743 70.2902 43.9785C70.4787 43.7826 70.7137 43.6847 70.9952 43.6847H82.6963C82.9753 43.6847 83.2152 43.7826 83.4111 43.9785C83.6069 44.1743 83.7048 44.4167 83.7048 44.7031C83.7048 44.9846 83.6069 45.2196 83.4111 45.4081C83.2152 45.5917 82.9753 45.6822 82.6963 45.6822H77.9277V59.1458C77.9277 59.4469 77.82 59.699 77.6046 59.8997C77.3941 60.1005 77.1395 60.2033 76.8409 60.2033Z" fill="white"/>
<path d="M87.3442 60.0858C87.0431 60.0858 86.791 59.9854 86.5903 59.7822C86.3871 59.5815 86.2867 59.3294 86.2867 59.0283V44.7716C86.2867 44.473 86.3871 44.2184 86.5903 44.0078C86.791 43.7924 87.0431 43.6847 87.3442 43.6847H96.7638C97.0429 43.6847 97.2828 43.7826 97.4786 43.9785C97.6745 44.1743 97.7724 44.4167 97.7724 44.7031C97.7724 44.9846 97.6745 45.2196 97.4786 45.4081C97.2828 45.5917 97.0429 45.6822 96.7638 45.6822H88.4213V50.8816H95.912C96.191 50.8816 96.4309 50.9795 96.6267 51.1753C96.8226 51.3712 96.9205 51.6111 96.9205 51.8901C96.9205 52.1717 96.8226 52.4067 96.6267 52.5951C96.4309 52.7861 96.191 52.8791 95.912 52.8791H88.4213V58.0883H96.7638C97.0429 58.0883 97.2828 58.1862 97.4786 58.382C97.6745 58.5778 97.7724 58.8177 97.7724 59.0968C97.7724 59.3783 97.6745 59.6133 97.4786 59.8018C97.2828 59.9927 97.0429 60.0858 96.7638 60.0858H87.3442Z" fill="white"/>
<path d="M108.506 60.3208C106.94 60.3208 105.532 59.9829 104.286 59.3024C103.038 58.617 102.059 57.6378 101.349 56.3649C100.636 55.0871 100.281 53.5939 100.281 51.8901C100.281 50.1815 100.636 48.6883 101.349 47.4153C102.059 46.1375 103.038 45.1584 104.286 44.4778C105.532 43.7998 106.94 43.4595 108.506 43.4595C109.569 43.4595 110.519 43.5843 111.356 43.8316C112.19 44.0813 113.025 44.4387 113.862 44.9087C114.2 45.0996 114.372 45.3958 114.372 45.7997C114.372 46.0347 114.286 46.2452 114.117 46.4264C113.946 46.61 113.718 46.7005 113.432 46.7005C113.275 46.7005 113.133 46.6687 113.011 46.6026C112.325 46.2452 111.652 45.9711 110.993 45.7801C110.333 45.5916 109.574 45.4962 108.712 45.4962C107.366 45.4962 106.22 45.7777 105.275 46.3383C104.328 46.8939 103.613 47.6552 103.131 48.6197C102.653 49.5793 102.416 50.6711 102.416 51.8901C102.416 53.1116 102.653 54.2059 103.131 55.1703C103.613 56.1299 104.328 56.8888 105.275 57.442C106.22 57.9977 107.366 58.2743 108.712 58.2743C109.574 58.2743 110.333 58.1837 110.993 58.0001C111.652 57.8116 112.325 57.5375 113.011 57.1776C113.133 57.114 113.275 57.0797 113.432 57.0797C113.718 57.0797 113.946 57.1678 114.117 57.3441C114.286 57.5154 114.372 57.7235 114.372 57.9708C114.372 58.3771 114.2 58.6733 113.862 58.8618C113.025 59.3318 112.19 59.6941 111.356 59.9487C110.519 60.1959 109.569 60.3208 108.506 60.3208Z" fill="white"/>
<path d="M118.65 60.2033C118.349 60.2033 118.097 60.1005 117.896 59.8997C117.693 59.699 117.593 59.4469 117.593 59.1458V44.6541C117.593 44.3555 117.693 44.1009 117.896 43.8904C118.097 43.6823 118.349 43.577 118.65 43.577C118.944 43.577 119.194 43.6823 119.404 43.8904C119.62 44.1009 119.727 44.3555 119.727 44.6541V50.9012H128.628V44.6541C128.628 44.3555 128.728 44.1009 128.931 43.8904C129.139 43.6823 129.392 43.577 129.685 43.577C129.984 43.577 130.239 43.6823 130.449 43.8904C130.665 44.1009 130.772 44.3555 130.772 44.6541V59.1458C130.772 59.4469 130.665 59.699 130.449 59.8997C130.239 60.1005 129.984 60.2033 129.685 60.2033C129.392 60.2033 129.139 60.1005 128.931 59.8997C128.728 59.699 128.628 59.4469 128.628 59.1458V52.8987H119.727V59.1458C119.727 59.4469 119.62 59.699 119.404 59.8997C119.194 60.1005 118.944 60.2033 118.65 60.2033Z" fill="white"/>
<path d="M140.181 60.2033C139.887 60.2033 139.635 60.1005 139.427 59.8997C139.224 59.699 139.123 59.4469 139.123 59.1458V45.6822H134.335C134.054 45.6822 133.819 45.5917 133.63 45.4081C133.439 45.2196 133.346 44.9846 133.346 44.7031C133.346 44.4167 133.439 44.1743 133.63 43.9785C133.819 43.7826 134.054 43.6847 134.335 43.6847H146.036C146.315 43.6847 146.555 43.7826 146.751 43.9785C146.947 44.1743 147.045 44.4167 147.045 44.7031C147.045 44.9846 146.947 45.2196 146.751 45.4081C146.555 45.5917 146.315 45.6822 146.036 45.6822H141.268V59.1458C141.268 59.4469 141.16 59.699 140.944 59.8997C140.734 60.1005 140.479 60.2033 140.181 60.2033Z" fill="white"/>
<path d="M150.684 60.2033C150.383 60.2033 150.131 60.1005 149.93 59.8997C149.727 59.699 149.627 59.4469 149.627 59.1458V44.6541C149.627 44.3555 149.727 44.1009 149.93 43.8904C150.131 43.6823 150.383 43.577 150.684 43.577C150.978 43.577 151.228 43.6823 151.438 43.8904C151.653 44.1009 151.761 44.3555 151.761 44.6541V59.1458C151.761 59.4469 151.653 59.699 151.438 59.8997C151.228 60.1005 150.978 60.2033 150.684 60.2033Z" fill="white"/>
<path d="M161.177 60.2033C160.883 60.2033 160.631 60.1005 160.423 59.8997C160.219 59.699 160.119 59.4469 160.119 59.1458V45.6822H155.331C155.049 45.6822 154.814 45.5917 154.626 45.4081C154.435 45.2196 154.342 44.9846 154.342 44.7031C154.342 44.4167 154.435 44.1743 154.626 43.9785C154.814 43.7826 155.049 43.6847 155.331 43.6847H167.032C167.311 43.6847 167.551 43.7826 167.747 43.9785C167.943 44.1743 168.041 44.4167 168.041 44.7031C168.041 44.9846 167.943 45.2196 167.747 45.4081C167.551 45.5917 167.311 45.6822 167.032 45.6822H162.263V59.1458C162.263 59.4469 162.156 59.699 161.94 59.8997C161.73 60.1005 161.475 60.2033 161.177 60.2033Z" fill="white"/>
<path d="M170.573 60.2033C170.26 60.2033 170.006 60.1005 169.81 59.8997C169.614 59.699 169.516 59.4469 169.516 59.1458C169.516 59.0234 169.555 58.8667 169.633 58.6758L175.626 44.5366C175.748 44.2575 175.922 44.0274 176.145 43.8512C176.373 43.67 176.654 43.577 176.987 43.577H177.222C177.548 43.577 177.824 43.67 178.054 43.8512C178.282 44.0274 178.458 44.2575 178.583 44.5366L184.576 58.6758C184.654 58.8667 184.693 59.0234 184.693 59.1458C184.693 59.4469 184.595 59.699 184.399 59.8997C184.203 60.1005 183.949 60.2033 183.636 60.2033C183.413 60.2033 183.21 60.1445 183.028 60.027C182.852 59.9095 182.718 59.7504 182.627 59.5472L181.1 55.8852H173.11L171.582 59.5472C171.489 59.7504 171.352 59.9095 171.171 60.027C170.987 60.1445 170.789 60.2033 170.573 60.2033ZM173.932 53.9268H180.277L177.105 46.2991L173.932 53.9268Z" fill="white"/>
<path d="M189.2 60.2033C188.899 60.2033 188.647 60.1005 188.446 59.8997C188.243 59.699 188.142 59.4469 188.142 59.1458V45.1241C188.142 44.7006 188.289 44.3383 188.583 44.0372C188.882 43.7312 189.244 43.577 189.67 43.577H189.973C190.475 43.577 190.906 43.8096 191.266 44.2722L200.304 57.3343V44.6541C200.304 44.3555 200.404 44.1009 200.607 43.8904C200.815 43.6823 201.067 43.577 201.361 43.577C201.66 43.577 201.914 43.6823 202.125 43.8904C202.34 44.1009 202.448 44.3555 202.448 44.6541V58.6758C202.448 59.1017 202.294 59.464 201.988 59.7627C201.679 60.0564 201.315 60.2033 200.891 60.2033H200.617C200.362 60.2033 200.123 60.1445 199.902 60.027C199.687 59.9095 199.506 59.7578 199.364 59.5668L190.277 46.4362V59.1458C190.277 59.4469 190.169 59.699 189.954 59.8997C189.743 60.1005 189.494 60.2033 189.2 60.2033Z" fill="white"/>
<mask id="mask0_4_12" style="mask-type:luminance" maskUnits="userSpaceOnUse" x="206" y="61" width="8" height="7">
<path d="M206.766 61.0103H213.61V67.8546H206.766V61.0103Z" fill="white"/>
</mask>
<g mask="url(#mask0_4_12)">
<mask id="mask1_4_12" style="mask-type:luminance" maskUnits="userSpaceOnUse" x="206" y="61" width="8" height="7">
<path d="M210.188 61.0103C208.298 61.0103 206.766 62.5426 206.766 64.4324C206.766 66.3222 208.298 67.8546 210.188 67.8546C212.078 67.8546 213.61 66.3222 213.61 64.4324C213.61 62.5426 212.078 61.0103 210.188 61.0103Z" fill="white"/>
</mask>
<g mask="url(#mask1_4_12)">
<path d="M206.766 61.0103H213.61V67.8546H206.766V61.0103Z" fill="#00FAA8"/>
</g>
</g>
<mask id="mask2_4_12" style="mask-type:luminance" maskUnits="userSpaceOnUse" x="23" y="34" width="42" height="43">
<path d="M23.5 34.1248H64.39V76.8948H23.5V34.1248Z" fill="white"/>
</mask>
<g mask="url(#mask2_4_12)">
<mask id="mask3_4_12" style="mask-type:luminance" maskUnits="userSpaceOnUse" x="23" y="34" width="42" height="43">
<path d="M46.9902 54.0533H28.7386C28.0311 54.0533 27.5171 53.3801 27.708 52.6996L32.7189 34.9081C32.8486 34.4479 33.2697 34.1297 33.7494 34.1297H51.9987C52.7086 34.1297 53.2202 34.8029 53.0292 35.4834L48.0184 53.2749C47.8886 53.7351 47.4676 54.0533 46.9902 54.0533ZM35.135 67.4826L37.7151 58.3225C37.906 57.6419 37.3944 56.9688 36.6869 56.9688H27.3041C26.8243 56.9688 26.4032 57.287 26.276 57.7472L23.6959 66.9073C23.5025 67.5854 24.0165 68.261 24.724 68.261H34.1068C34.5842 68.261 35.0052 67.9428 35.135 67.4826ZM39.8815 57.7472L34.8706 75.5387C34.6797 76.2167 35.1937 76.8899 35.9012 76.8899H54.1528C54.6302 76.8899 55.0512 76.5741 55.181 76.1139L60.1918 58.3225C60.3828 57.6419 59.8712 56.9688 59.1613 56.9688H40.9121C40.4323 56.9688 40.0112 57.287 39.8815 57.7472ZM52.7649 43.5395L50.1848 52.6996C49.9938 53.3801 50.5054 54.0533 51.2153 54.0533H60.5958C61.0755 54.0533 61.4966 53.7351 61.6263 53.2749L64.2064 44.1148C64.3974 43.4342 63.8833 42.7611 63.1759 42.7611H53.7954C53.3156 42.7611 52.8946 43.0793 52.7649 43.5395Z" fill="white"/>
</mask>
<g mask="url(#mask3_4_12)">
<path d="M23.5024 34.1297V76.8899H64.39V34.1297H23.5024Z" fill="url(#paint0_linear_4_12)"/>
</g>
</g>
<defs>
<linearGradient id="paint0_linear_4_12" x1="33.4647" y1="30.057" x2="54.3047" y2="81.0155" gradientUnits="userSpaceOnUse">
<stop stop-color="#00FCA8"/>
<stop offset="0.0625" stop-color="#00FCA8"/>
<stop offset="0.09375" stop-color="#00FCA8"/>
<stop offset="0.101562" stop-color="#00FCA9"/>
<stop offset="0.109375" stop-color="#01FBAA"/>
<stop offset="0.117188" stop-color="#01FBAB"/>
<stop offset="0.125" stop-color="#01FBAC"/>
<stop offset="0.132812" stop-color="#01FAAD"/>
<stop offset="0.140625" stop-color="#02FAAD"/>
<stop offset="0.148437" stop-color="#02F9AE"/>
<stop offset="0.15625" stop-color="#02F9AF"/>
<stop offset="0.164062" stop-color="#03F9B0"/>
<stop offset="0.171875" stop-color="#03F8B1"/>
<stop offset="0.179687" stop-color="#03F8B2"/>
<stop offset="0.1875" stop-color="#04F8B3"/>
<stop offset="0.195312" stop-color="#04F7B4"/>
<stop offset="0.203125" stop-color="#04F7B5"/>
<stop offset="0.210937" stop-color="#04F7B6"/>
<stop offset="0.21875" stop-color="#05F6B7"/>
<stop offset="0.226562" stop-color="#05F6B8"/>
<stop offset="0.234375" stop-color="#05F6B8"/>
<stop offset="0.242187" stop-color="#06F5B9"/>
<stop offset="0.25" stop-color="#06F5BA"/>
<stop offset="0.257812" stop-color="#06F4BB"/>
<stop offset="0.265625" stop-color="#06F4BC"/>
<stop offset="0.273438" stop-color="#07F4BD"/>
<stop offset="0.281112" stop-color="#07F3BE"/>
<stop offset="0.28125" stop-color="#07F3BE"/>
<stop offset="0.289062" stop-color="#07F3BF"/>
<stop offset="0.296875" stop-color="#08F3C0"/>
<stop offset="0.304688" stop-color="#08F2C1"/>
<stop offset="0.3125" stop-color="#08F2C2"/>
<stop offset="0.320312" stop-color="#09F2C3"/>
<stop offset="0.328125" stop-color="#09F1C3"/>
<stop offset="0.335938" stop-color="#09F1C4"/>
<stop offset="0.34375" stop-color="#09F1C5"/>
<stop offset="0.351562" stop-color="#0AF0C6"/>
<stop offset="0.359375" stop-color="#0AF0C7"/>
<stop offset="0.367188" stop-color="#0AEFC8"/>
<stop offset="0.375" stop-color="#0BEFC9"/>
<stop offset="0.382812" stop-color="#0BEFCA"/>
<stop offset="0.390625" stop-color="#0BEECB"/>
<stop offset="0.398438" stop-color="#0BEECC"/>
<stop offset="0.40625" stop-color="#0CEECD"/>
<stop offset="0.414062" stop-color="#0CEDCD"/>
<stop offset="0.421875" stop-color="#0CEDCE"/>
<stop offset="0.429688" stop-color="#0DEDCF"/>
<stop offset="0.4375" stop-color="#0DECD0"/>
<stop offset="0.445312" stop-color="#0DECD1"/>
<stop offset="0.453125" stop-color="#0EECD2"/>
<stop offset="0.460938" stop-color="#0EEBD3"/>
<stop offset="0.46875" stop-color="#0EEBD4"/>
<stop offset="0.476562" stop-color="#0EEAD5"/>
<stop offset="0.484375" stop-color="#0FEAD6"/>
<stop offset="0.492188" stop-color="#0FEAD7"/>
<stop offset="0.5" stop-color="#0FE9D8"/>
<stop offset="0.507812" stop-color="#10E9D8"/>
<stop offset="0.515625" stop-color="#10E9D9"/>
<stop offset="0.523438" stop-color="#10E8DA"/>
<stop offset="0.53125" stop-color="#11E8DB"/>
<stop offset="0.539062" stop-color="#11E8DC"/>
<stop offset="0.546875" stop-color="#11E7DD"/>
<stop offset="0.554688" stop-color="#11E7DE"/>
<stop offset="0.5625" stop-color="#12E7DF"/>
<stop offset="0.570312" stop-color="#12E6E0"/>
<stop offset="0.578125" stop-color="#12E6E1"/>
<stop offset="0.585938" stop-color="#13E5E2"/>
<stop offset="0.59375" stop-color="#13E5E3"/>
<stop offset="0.601562" stop-color="#13E5E3"/>
<stop offset="0.609375" stop-color="#13E4E4"/>
<stop offset="0.617188" stop-color="#14E4E5"/>
<stop offset="0.625" stop-color="#14E4E6"/>
<stop offset="0.632812" stop-color="#14E3E7"/>
<stop offset="0.640625" stop-color="#15E3E8"/>
<stop offset="0.648438" stop-color="#15E3E9"/>
<stop offset="0.65625" stop-color="#15E2EA"/>
<stop offset="0.664062" stop-color="#16E2EB"/>
<stop offset="0.671875" stop-color="#16E2EC"/>
<stop offset="0.679688" stop-color="#16E1ED"/>
<stop offset="0.6875" stop-color="#16E1EE"/>
<stop offset="0.695312" stop-color="#17E0EE"/>
<stop offset="0.703125" stop-color="#17E0EF"/>
<stop offset="0.710938" stop-color="#17E0F0"/>
<stop offset="0.71875" stop-color="#18DFF1"/>
<stop offset="0.718888" stop-color="#18DFF2"/>
<stop offset="0.726562" stop-color="#18DFF3"/>
<stop offset="0.734375" stop-color="#18DFF3"/>
<stop offset="0.742188" stop-color="#18DEF4"/>
<stop offset="0.75" stop-color="#19DEF5"/>
<stop offset="0.757812" stop-color="#19DEF6"/>
<stop offset="0.765625" stop-color="#19DDF7"/>
<stop offset="0.773438" stop-color="#1ADDF8"/>
<stop offset="0.78125" stop-color="#1ADDF9"/>
<stop offset="0.789062" stop-color="#1ADCF9"/>
<stop offset="0.796875" stop-color="#1BDCFA"/>
<stop offset="0.804687" stop-color="#1BDBFB"/>
<stop offset="0.8125" stop-color="#1BDBFC"/>
<stop offset="0.820312" stop-color="#1BDBFD"/>
<stop offset="0.828125" stop-color="#1CDAFE"/>
<stop offset="0.84375" stop-color="#1CDAFF"/>
<stop offset="0.875" stop-color="#1CDAFF"/>
<stop offset="1" stop-color="#1CDAFF"/>
</linearGradient>
</defs>
</svg>
